<?xml version="1.0" encoding="UTF-8"?>
<svg id="Calque_1" xmlns="http://www.w3.org/2000/svg" version="1.1" viewBox="0 0 300 300">
  <!-- Generator: Adobe Illustrator 29.2.1, SVG Export Plug-In . SVG Version: 2.1.0 Build 116)  -->
  <defs>
    <style>
      .st0 {
        fill: #3b2314;
      }

      .st1 {
        fill: #fff;
      }

      .st2 {
        fill: #58595b;
      }

      .st3 {
        fill: #faaf40;
      }

      .st4 {
        fill: #e6e7e8;
      }
    </style>
  </defs>
  <g>
    <g>
      <path class="st4" d="M265.5,150c0,63.8-51.7,115.5-115.5,115.5s-115.5-51.7-115.5-115.5,14.8-64.9,38.4-86c20.4-18.3,47.5-29.5,77.1-29.5s56.6,11.1,77,29.5c23.6,21.1,38.5,51.9,38.5,86.1Z"/>
      <path class="st0" d="M150,271.7c-67.1,0-121.7-54.6-121.7-121.7s14.8-67.6,40.5-90.7c22.3-20,51.2-31.1,81.2-31.1s58.9,11,81.2,31.1c25.8,23,40.5,56.1,40.5,90.7,0,67.1-54.6,121.7-121.7,121.7ZM150,40.7c-27,0-52.9,9.9-72.9,27.9-23.1,20.7-36.4,50.4-36.4,81.4,0,60.3,49,109.3,109.3,109.3s109.3-49,109.3-109.3-13.3-60.7-36.4-81.4c-20-18-45.9-27.9-72.9-27.9Z"/>
    </g>
    <g>
      <path class="st2" d="M265.5,150H34.5c0-34.2,14.8-64.9,38.4-86,20.4-18.3,47.5-29.5,77.1-29.5s56.6,11.1,77,29.5c23.6,21.1,38.5,51.9,38.5,86.1Z"/>
      <path class="st0" d="M265.5,156.2H34.5c-3.4,0-6.2-2.8-6.2-6.2,0-34.6,14.8-67.6,40.5-90.7,22.3-20,51.2-31.1,81.2-31.1s58.9,11,81.2,31.1c25.8,23,40.5,56.1,40.5,90.7s-2.8,6.2-6.2,6.2ZM40.9,143.8h218.3c-1.6-28.8-14.6-55.9-36.2-75.2-20-18-45.9-27.9-72.9-27.9s-52.9,9.9-72.9,27.9c-21.6,19.3-34.6,46.4-36.2,75.2Z"/>
    </g>
    <g>
      <path class="st1" d="M181.6,150c0,17.4-14.1,31.6-31.6,31.6s-31.6-14.1-31.6-31.6,14.1-31.6,31.6-31.6,31.6,14.1,31.6,31.6Z"/>
      <path class="st0" d="M150,187.8c-20.9,0-37.8-17-37.8-37.8s17-37.8,37.8-37.8,37.8,17,37.8,37.8-17,37.8-37.8,37.8ZM150,124.6c-14,0-25.4,11.4-25.4,25.4s11.4,25.4,25.4,25.4,25.4-11.4,25.4-25.4-11.4-25.4-25.4-25.4Z"/>
    </g>
  </g>
  <g>
    <path class="st3" d="M227,64v86.1h-28v-64l-49.1-40.7-49.1,40.7v64h-28V64c20.4-18.3,47.5-29.5,77.1-29.5s56.6,11.1,77,29.5Z"/>
    <path class="st0" d="M227,156.2h-28c-3.4,0-6.2-2.8-6.2-6.2v-61.1l-42.9-35.5-42.9,35.5v61.1c0,3.4-2.8,6.2-6.2,6.2h-28c-3.4,0-6.2-2.8-6.2-6.2V64c0-1.8.7-3.4,2.1-4.6,22.3-20,51.2-31.1,81.2-31.1s58.9,11,81.2,31.1c1.3,1.2,2.1,2.9,2.1,4.6v86.1c0,3.4-2.8,6.2-6.2,6.2ZM205.3,143.8h15.5v-77c-18.6-15.9-42-25-66.5-26l48.8,40.4c1.4,1.2,2.2,2.9,2.2,4.8v57.8ZM79.1,143.8h15.5v-57.8c0-1.9.8-3.6,2.3-4.8l48.8-40.4c-24.5,1-47.9,10.1-66.6,26v77Z"/>
  </g>
</svg>