<?xml version="1.0" encoding="UTF-8"?>
<svg id="Calque_1" xmlns="http://www.w3.org/2000/svg" version="1.1" viewBox="0 0 300 300">
  <!-- Generator: Adobe Illustrator 29.2.1, SVG Export Plug-In . SVG Version: 2.1.0 Build 116)  -->
  <defs>
    <style>
      .st0 {
        fill: #3b2314;
      }

      .st1 {
        fill: #fff;
      }

      .st2 {
        fill: #ef65a4;
      }

      .st3 {
        fill: #90278e;
      }

      .st4 {
        fill: #e6e7e8;
      }
    </style>
  </defs>
  <g>
    <path class="st4" d="M265.5,150c0,63.8-51.7,115.5-115.5,115.5s-115.5-51.7-115.5-115.5,51.7-115.5,115.5-115.5,115.5,51.7,115.5,115.5Z"/>
    <path class="st0" d="M150,271.7c-67.1,0-121.7-54.6-121.7-121.7S82.8,28.3,150,28.3s121.7,54.6,121.7,121.7-54.6,121.7-121.7,121.7ZM150,40.7c-60.3,0-109.3,49-109.3,109.3s49,109.3,109.3,109.3,109.3-49,109.3-109.3-49-109.3-109.3-109.3Z"/>
  </g>
  <g>
    <path class="st3" d="M265.5,150H34.4c0-63.8,51.7-115.5,115.5-115.5s115.5,51.7,115.5,115.5Z"/>
    <path class="st0" d="M265.5,156.2H34.4c-3.4,0-6.2-2.8-6.2-6.2,0-67.1,54.6-121.7,121.7-121.7s121.7,54.6,121.7,121.7-2.8,6.2-6.2,6.2ZM40.8,143.8h218.3c-3.2-57.4-50.9-103.1-109.1-103.1s-105.9,45.7-109.1,103.1Z"/>
  </g>
  <g>
    <path class="st1" d="M181.6,150c0,17.4-14.1,31.6-31.6,31.6s-31.6-14.1-31.6-31.6,14.1-31.6,31.6-31.6,31.6,14.1,31.6,31.6Z"/>
    <path class="st0" d="M150,187.8c-20.8,0-37.8-17-37.8-37.8s17-37.8,37.8-37.8,37.8,17,37.8,37.8-17,37.8-37.8,37.8ZM150,124.6c-14,0-25.4,11.4-25.4,25.4s11.4,25.4,25.4,25.4,25.4-11.4,25.4-25.4-11.4-25.4-25.4-25.4Z"/>
  </g>
  <g>
    <path class="st2" d="M46.3,98.9h0c25.4-7.6,45.5-27.2,53.9-52.3l.4-1.1s-6.2-5.1-16.3-8.4c-36.9-11.8-65.7,33-38.8,60.9l.8.8Z"/>
    <path class="st0" d="M46.3,105.2c-1.6,0-3.2-.6-4.4-1.9l-.8-.8c-14.2-14.7-16.4-35.3-5.6-52.6,9-14.5,28.2-25.9,50.8-18.6,11.1,3.5,18,9.2,18.3,9.5,2,1.6,2.7,4.3,1.9,6.8l-.4,1.1c-9,27-30.7,48.1-58,56.3-.6.2-1.2.3-1.8.3ZM72.2,41.4c-12.2,0-21.5,7.4-26.2,15-5.5,8.8-8,23.1,2.2,35.3,20.6-7.4,37.1-23.4,45-43.8-2.5-1.5-6.2-3.4-10.7-4.9-3.6-1.2-7-1.7-10.2-1.7Z"/>
  </g>
  <g>
    <path class="st2" d="M254.1,98.9h0c-25.4-7.6-45.5-27.2-53.9-52.3l-.4-1.1s6.2-5.1,16.3-8.4c36.9-11.8,65.7,33,38.8,60.9l-.8.8Z"/>
    <path class="st0" d="M254.1,105.2c-.6,0-1.2,0-1.8-.3-27.3-8.2-49-29.3-58-56.3l-.4-1.1c-.8-2.4,0-5.1,1.9-6.8.3-.2,7.3-6,18.3-9.5,22.6-7.2,41.8,4.1,50.8,18.6,10.7,17.3,8.5,37.9-5.6,52.5l-.9.9c-1.2,1.2-2.8,1.9-4.4,1.9ZM207.3,48c7.9,20.4,24.4,36.4,45,43.8,10.1-12.2,7.7-26.5,2.2-35.3-6-9.6-19.1-18.9-36.4-13.4-4.6,1.5-8.2,3.4-10.7,4.9Z"/>
  </g>
  <path class="st1" d="M193.1,102.8l-19.9-36.9c-.9-1.7-2.7-2.9-4.6-3.2-2-.3-3.9.4-5.3,1.8l-13.3,13.8-13.3-13.8c-1.4-1.4-3.3-2.1-5.3-1.8-2,.3-3.7,1.5-4.6,3.2l-19.9,36.9c-1.6,3-.5,6.8,2.5,8.4.9.5,2,.7,2.9.7,2.2,0,4.4-1.2,5.5-3.3l15.9-29.4,11.9,12.3s0,0,0,0c0,0,0,0,0,0,.1.1.3.2.4.3.2.1.3.3.5.4.2.1.4.2.6.3.2,0,.3.2.5.3.2,0,.4.1.6.2.2,0,.4.1.6.2.2,0,.4,0,.6,0,.2,0,.4,0,.6,0,.2,0,.4,0,.6,0,.2,0,.4,0,.6,0,.2,0,.4,0,.5-.1.2,0,.4-.1.6-.2.2,0,.3-.2.5-.3.2,0,.4-.2.6-.3.2-.1.3-.3.5-.4.1-.1.3-.2.4-.3,0,0,0,0,0,0,0,0,0,0,0,0l11.9-12.3,15.9,29.4c1.1,2.1,3.3,3.3,5.5,3.3s2-.2,2.9-.7c3-1.6,4.1-5.4,2.5-8.4Z"/>
</svg>