<?xml version="1.0" encoding="UTF-8"?>
<svg id="Calque_1" xmlns="http://www.w3.org/2000/svg" version="1.1" viewBox="0 0 300 300">
  <!-- Generator: Adobe Illustrator 29.2.1, SVG Export Plug-In . SVG Version: 2.1.0 Build 116)  -->
  <defs>
    <style>
      .st0 {
        fill: #3b2314;
      }

      .st1 {
        fill: #e23d2e;
      }

      .st2 {
        fill: #fff;
      }

      .st3 {
        fill: #e6e7e8;
      }
    </style>
  </defs>
  <g>
    <path class="st3" d="M265.5,150c0,63.8-51.7,115.5-115.5,115.5s-115.5-51.7-115.5-115.5,51.7-115.5,115.5-115.5,115.5,51.7,115.5,115.5Z"/>
    <path class="st0" d="M150,271.7c-67.1,0-121.7-54.6-121.7-121.7S82.9,28.3,150,28.3s121.7,54.6,121.7,121.7-54.6,121.7-121.7,121.7ZM150,40.7c-60.3,0-109.3,49-109.3,109.3s49,109.3,109.3,109.3,109.3-49,109.3-109.3-49-109.3-109.3-109.3Z"/>
  </g>
  <g>
    <path class="st1" d="M265.5,150H34.5c0-63.8,51.7-115.5,115.5-115.5s115.5,51.7,115.5,115.5Z"/>
    <path class="st0" d="M265.5,156.2H34.5c-3.4,0-6.2-2.8-6.2-6.2,0-67.1,54.6-121.7,121.7-121.7s121.7,54.6,121.7,121.7-2.8,6.2-6.2,6.2ZM40.9,143.8h218.3c-3.2-57.4-50.9-103.1-109.1-103.1s-105.9,45.7-109.1,103.1Z"/>
  </g>
  <g>
    <path class="st2" d="M181.6,150c0,17.4-14.1,31.6-31.6,31.6s-31.6-14.1-31.6-31.6,14.1-31.6,31.6-31.6,31.6,14.1,31.6,31.6Z"/>
    <path class="st0" d="M150,187.8c-20.9,0-37.8-17-37.8-37.8s17-37.8,37.8-37.8,37.8,17,37.8,37.8-17,37.8-37.8,37.8ZM150,124.6c-14,0-25.4,11.4-25.4,25.4s11.4,25.4,25.4,25.4,25.4-11.4,25.4-25.4-11.4-25.4-25.4-25.4Z"/>
  </g>
</svg>