<?xml version="1.0" encoding="UTF-8"?>
<svg id="Calque_1" xmlns="http://www.w3.org/2000/svg" version="1.1" viewBox="0 0 300 300">
  <!-- Generator: Adobe Illustrator 29.2.1, SVG Export Plug-In . SVG Version: 2.1.0 Build 116)  -->
  <defs>
    <style>
      .st0 {
        fill: #3b2314;
      }

      .st1 {
        fill: #fff;
      }

      .st2 {
        fill: #26a9e0;
      }

      .st3 {
        fill: #ee4036;
      }

      .st4 {
        fill: #e6e7e8;
      }
    </style>
  </defs>
  <g>
    <g>
      <path class="st4" d="M265.5,150c0,63.8-51.7,115.5-115.5,115.5s-115.5-51.7-115.5-115.5,51.7-115.5,115.5-115.5,115.5,51.7,115.5,115.5Z"/>
      <path class="st0" d="M150,271.7c-67.1,0-121.7-54.6-121.7-121.7S82.9,28.3,150,28.3s121.7,54.6,121.7,121.7-54.6,121.7-121.7,121.7ZM150,40.7c-60.3,0-109.3,49-109.3,109.3s49,109.3,109.3,109.3,109.3-49,109.3-109.3-49-109.3-109.3-109.3Z"/>
    </g>
    <g>
      <path class="st2" d="M265.5,150H34.5c0-63.8,51.7-115.5,115.5-115.5s115.5,51.7,115.5,115.5Z"/>
      <path class="st0" d="M265.5,156.2H34.5c-3.4,0-6.2-2.8-6.2-6.2,0-67.1,54.6-121.7,121.7-121.7s121.7,54.6,121.7,121.7-2.8,6.2-6.2,6.2ZM40.9,143.8h218.3c-3.2-57.4-50.9-103.1-109.1-103.1s-105.9,45.7-109.1,103.1Z"/>
    </g>
    <g>
      <path class="st1" d="M181.6,150c0,17.4-14.1,31.6-31.6,31.6s-31.6-14.1-31.6-31.6,14.1-31.6,31.6-31.6,31.6,14.1,31.6,31.6Z"/>
      <path class="st0" d="M150,187.8c-20.8,0-37.8-17-37.8-37.8s17-37.8,37.8-37.8,37.8,17,37.8,37.8-17,37.8-37.8,37.8ZM150,124.6c-14,0-25.4,11.4-25.4,25.4s11.4,25.4,25.4,25.4,25.4-11.4,25.4-25.4-11.4-25.4-25.4-25.4Z"/>
    </g>
  </g>
  <g>
    <g>
      <path class="st3" d="M45.9,78.2l54.7,34.7,21-20.7-40.6-51.9c-4.2-5.4-12.2-5.7-16.9-.8l-20.3,21.6c-4.8,5.1-3.8,13.3,2.1,17Z"/>
      <path class="st0" d="M100.5,119.1c-1.2,0-2.3-.3-3.3-1l-54.7-34.7c-4.4-2.8-7.3-7.3-7.9-12.5-.6-5.2,1-10.3,4.6-14.1l20.3-21.5c3.5-3.7,8.4-5.7,13.4-5.4,5.1.2,9.7,2.7,12.9,6.6l40.6,51.9c1.9,2.5,1.7,6-.5,8.3l-21,20.7c-1.2,1.2-2.8,1.8-4.4,1.8ZM72.2,42.3c-.9,0-2.3.2-3.6,1.5l-20.3,21.6c-1.4,1.5-1.4,3.1-1.3,4,.1.9.5,2.5,2.2,3.5h0s50.5,32.1,50.5,32.1l13.5-13.3-37.2-47.5c-1.2-1.5-2.8-1.8-3.7-1.9,0,0-.1,0-.2,0Z"/>
    </g>
    <g>
      <path class="st3" d="M254.1,78.2l-54.7,34.7-21-20.7,40.6-51.9c4.2-5.4,12.2-5.7,16.9-.8l20.3,21.6c4.8,5.1,3.8,13.3-2.1,17Z"/>
      <path class="st0" d="M199.5,119.1c-1.6,0-3.2-.6-4.4-1.8l-21-20.7c-2.3-2.2-2.5-5.8-.5-8.3l40.6-51.9c3.1-4,7.8-6.4,12.9-6.6,5.1-.2,10,1.7,13.4,5.4l20.3,21.6c3.6,3.8,5.2,8.9,4.6,14.1-.6,5.2-3.5,9.7-7.9,12.5h0s-54.7,34.7-54.7,34.7c-1,.7-2.2,1-3.3,1ZM186.8,91.7l13.5,13.3,50.5-32.1h0c1.7-1.1,2.1-2.7,2.2-3.5.1-.9,0-2.5-1.3-4l-20.3-21.6c-1.3-1.4-3-1.6-3.8-1.5-.8,0-2.4.3-3.7,1.9l-37.2,47.5Z"/>
    </g>
  </g>
</svg>